# xmcd
#
# Track frame offsets: 
#        150
#        17458
#        35523
#        57242
#        73941
#        109518
#        129013
#        147449
#        175566
#        204968
#        238241
#        264713
#        280262
#        302236
#
# Disc length: 4349 seconds
#
# Revision: 0
# Processed by: cddbd v1.5.2PL0 Copyright (c) Steve Scherf et al.
# Submitted via: ExactAudioCopy v1.0b3
#
DISCID=c410fb0e
DTITLE=Various Artist - Soul of the Night
DYEAR=2004
DGENRE=R&B
TTITLE0=Otis Clay - You're The One I Choose
TTITLE1=Irma Thomas - Old Records
TTITLE2=Holmes Brothers - And I Love Her
TTITLE3=Dalton Reed - Willing and Able
TTITLE4=Preston Shannon - The Clock
TTITLE5=Laura Nyro - La La Means I Love You
TTITLE6=Solomon Burke - It Don't Get No Better Than This
TTITLE7=Walter Washington - I stand Accused
TTITLE8=Holmes Brothers - When Something Is Wrong With My Baby
TTITLE9=Johnny Adams - Your Love Is So Doggone Good
TTITLE10=Irma Thomas - Zero Will Power
TTITLE11=Little Buster and the Soul Brothers - Whatever It Takes
TTITLE12=Ann Peebles - Just You Just Me
TTITLE13=Solomon Burke - For You
EXTD=
EXTT0=
EXTT1=
EXTT2=
EXTT3=
EXTT4=
EXTT5=
EXTT6=
EXTT7=
EXTT8=
EXTT9=
EXTT10=
EXTT11=
EXTT12=
EXTT13=
PLAYORDER=
